# xmcd
#
# Track frame offsets:
#	150
#	12514
#	25466
#	40034
#	52949
#	66586
#	81033
#	93803
#	106497
#	120920
#	131237
#	144397
#	155791
#	170378
#	184589
#	198881
#	212596
#	225104
#	238464
#	252532
#
# Disc length: 3534 seconds
#
# Revision: 1
# Processed by: cddbd v1.5.1PL0 Copyright (c) Steve Scherf et al.
# Submitted via: audiograbber 1.83.01
#
DISCID=100dcc14
DTITLE=John Lee Hooker - Black Cat Blues
DYEAR=2001
DGENRE=Blues
TTITLE0=Rollin' Blues
TTITLE1=Moon Is Rising
TTITLE2=Whistle Done Blown
TTITLE3=Turnin' Gray Blues
TTITLE4=She Was In Chicago
TTITLE5=Grinder Man
TTITLE6=My Baby's Got Something
TTITLE7=Huckle Up Baby
TTITLE8=Henry's Swing Club
TTITLE9=Sail On Little Girl
TTITLE10=Do My Baby Think Of Me?
TTITLE11=Goin' On Highway 51
TTITLE12=Street Is Filled With Women
TTITLE13=Throw This Old Dog A Bone
TTITLE14=Boogie Children
TTITLE15=Crawlin' King Snake
TTITLE16=War Is Over
TTITLE17=Hoogie Boogie
TTITLE18=Alberta
TTITLE19=Sailing Blues
EXTD=John Lee Hooker - Black Cat Blues - 24bit remastered\n2001 Zyx Music
EXTT0=
EXTT1=
EXTT2=
EXTT3=
EXTT4=
EXTT5=
EXTT6=
EXTT7=
EXTT8=
EXTT9=
EXTT10=
EXTT11=
EXTT12=
EXTT13=
EXTT14=
EXTT15=
EXTT16=
EXTT17=
EXTT18=
EXTT19=
PLAYORDER=
